<svg data-v-0dd9719b="" version="1.0" xmlns="http://www.w3.org/2000/svg" xmlns:xlink="http://www.w3.org/1999/xlink" width="100%" height="100%" viewBox="0 0 340.000000 250.000000" preserveAspectRatio="xMidYMid meet" color-interpolation-filters="sRGB" style="margin: auto;"> <rect data-v-0dd9719b="" x="0" y="0" width="100%" height="100%" fill="#ffffff" fill-opacity="1" class="background"></rect> <rect data-v-0dd9719b="" x="0" y="0" width="100%" height="100%" fill="url(#watermark)" fill-opacity="1" class="watermarklayer"></rect> <g data-v-0dd9719b="" fill="#333" class="icon-text-wrapper icon-svg-group iconsvg" transform="translate(27.76312255859375,94.72406387329102)"><g class="iconsvg-imagesvg" transform="translate(0,0)"><g><rect fill="#333" fill-opacity="0" stroke-width="2" x="0" y="0" width="60" height="60" class="image-rect"></rect> <svg x="0" y="0" width="60" height="60" filtersec="colorsb5231724131" class="image-svg-svg primary" style="overflow: visible;"><svg xmlns="http://www.w3.org/2000/svg" viewBox="0 0 288 288"><title>资源 23</title><path fill="none" d="M0 0h288v288H0z"></path><path fill="#ff5000" d="M144 0h144v144H144z"></path><path fill="#ffc81a" d="M0 144h144v144H0z"></path><path fill="#4286f5" d="M240 144h24v144h-24zM192 144h24v144h-24zM144 144h24v144h-24z"></path><path d="M0 0v144h144V0zm36 120a6 6 0 1 1 6-6 6 6 0 0 1-6 6zm0-42a6 6 0 1 1 6-6 6 6 0 0 1-6 6zm0-42a6 6 0 1 1 6-6 6 6 0 0 1-6 6zm36 84a6 6 0 1 1 6-6 6 6 0 0 1-6 6zm0-42a6 6 0 1 1 6-6 6 6 0 0 1-6 6zm0-42a6 6 0 1 1 6-6 6 6 0 0 1-6 6zm36 84a6 6 0 1 1 6-6 6 6 0 0 1-6 6zm0-42a6 6 0 1 1 6-6 6 6 0 0 1-6 6zm0-42a6 6 0 1 1 6-6 6 6 0 0 1-6 6z" fill="#ff92b6"></path></svg></svg> <!----></g></g> <g transform="translate(67,5.448125839233398)"><g data-gra="path-name" fill-rule="" class="tp-name iconsvg-namesvg" transform="translate(0,0)"><g transform="scale(1)"><g><path d="M34.93-18.24Q34.93-18.02 34.76-17.85 34.59-17.69 34.37-17.69L34.37-17.69 20.83-17.69Q21.64-13.54 24.25-9.43 26.86-5.33 29.91-2.35 32.97 0.63 34.93 1.44L34.93 1.44 34.93 3.85Q32.86 3.33 29.69 1.29 26.53-0.74 23.44-3.94 20.35-7.14 18.5-10.88L18.5-10.88Q16.65-7.14 13.56-3.94 10.47-0.74 7.31 1.29 4.14 3.33 2.07 3.85L2.07 3.85 2.07 1.44Q4.03 0.63 7.09-2.35 10.14-5.33 12.75-9.43 15.35-13.54 16.17-17.69L16.17-17.69 2.11-17.69 2.11-20.09 16.46-20.09 16.46-20.76 16.46-29.49 20.54-29.49 20.54-20.76 20.54-20.09 34.93-20.09 34.93-18.24ZM58.83-0.78L58.83-5.99 48.03-5.99 48.03-8.4 58.83-8.4 58.83-13.39 49.21-13.39 49.21-15.8 49.99-15.8Q52.1-18.2 53.8-22.94L53.8-22.94 48.43-22.94 48.43-25.34 54.61-25.34Q55.28-27.6 55.72-29.79L55.72-29.79 60.16-29.79Q59.72-27.38 58.94-25.34L58.94-25.34 71.34-25.34 71.34-23.49Q71.34-23.27 71.17-23.11 71-22.94 70.78-22.94L70.78-22.94 57.94-22.94Q56.28-19.39 53.28-15.8L53.28-15.8 58.83-15.8 58.83-20.9 62.9-20.9 62.9-15.8 70.41-15.8 70.41-13.95Q70.41-13.73 70.24-13.56 70.08-13.39 69.86-13.39L69.86-13.39 62.9-13.39 62.9-8.4 72.11-8.4 72.11-6.55Q72.11-6.33 71.95-6.16 71.78-5.99 71.56-5.99L71.56-5.99 62.9-5.99 62.9-1.33Q62.9-1.11 62.73-0.94 62.57-0.78 62.34-0.78L62.34-0.78 58.83-0.78ZM47.91-20.79L44.88-20.79Q44.51-21.5 42.72-23.9 40.92-26.31 39.33-28.08L39.33-28.08 44.14-28.08Q45.03-26.9 45.86-25.25 46.69-23.61 47.58-21.53L47.58-21.53 47.91-20.79ZM53.95 0.11L72.26 0.11 71.52 2.52 53.5 2.52Q50.25 2.52 48.21 1.59 46.18 0.67 44.84-0.89L44.84-0.89Q44.4 0.04 43.25 1.05 42.11 2.07 40.83 2.77 39.55 3.48 38.7 3.51L38.7 3.51 38.7 1.11Q40.37 0.04 41.61-1.57 42.85-3.18 42.85-5.25L42.85-5.25 42.85-14.39 39.07-14.39 39.07-16.8 46.92-16.8 46.92-3.96Q46.99-2.15 48.71-1.02 50.43 0.11 53.95 0.11L53.95 0.11ZM85.58-15.28Q83.77-13.43 80.88-12.17 78-10.91 75.7-10.51L75.7-10.51 75.7-12.91Q78.07-13.84 80.01-15.24 81.95-16.65 82.92-18.31L82.92-18.31 76.11-18.31 76.11-20.72 83.62-20.72 83.62-20.94 83.62-24.46 81.58-24.46Q79.18-22.35 76.59-21.27L76.59-21.27 76.59-23.68Q77.92-24.61 78.9-26.16 79.88-27.71 80.44-29.79L80.44-29.79 84.88-29.79Q84.84-28.45 83.73-26.86L83.73-26.86 92.94-26.86 92.94-25.01Q92.94-24.79 92.78-24.62 92.61-24.46 92.39-24.46L92.39-24.46 87.69-24.46 87.69-20.94 87.69-20.72 93.72-20.72 93.72-18.87Q93.72-18.65 93.55-18.48 93.39-18.31 93.17-18.31L93.17-18.31 88.17-18.31Q88.73-17.06 89.98-16.15 91.24-15.24 93.61-14.13L93.61-14.13 93.61-11.73Q91.91-11.84 89.54-12.76 87.17-13.69 85.58-15.28L85.58-15.28ZM107.97-26.97L107.97-16.54Q107.97-12.65 104.08-12.65L104.08-12.65 94.35-12.65 94.35-26.97 107.97-26.97ZM102.6-15.06Q103.9-15.06 103.9-16.35L103.9-16.35 103.9-24.57 98.42-24.57 98.42-15.06 102.6-15.06ZM105.45-11.32L105.45-0.41Q105.45 3.48 101.56 3.48L101.56 3.48 79.59 3.48 79.59-11.32 105.45-11.32ZM83.66-8.92L83.66-5.4 101.38-5.4 101.38-8.92 83.66-8.92ZM100.08 1.07Q101.38 1.07 101.38-0.22L101.38-0.22 101.38-3 83.66-3 83.66 1.07 100.08 1.07ZM125.8-29.79Q126.98-26.68 128.72-24.59 130.46-22.5 133.42-20.13L133.42-20.13 133.42-17.72Q130.54-18.68 127.85-20.63 125.17-22.57 123.43-25.12L123.43-25.12Q120.4-19.83 112.7-15.91L112.7-15.91 112.7-18.31Q118.25-22.64 120.73-29.79L120.73-29.79 125.8-29.79ZM140.86-29.79L144.93-29.79 144.93-1Q144.93 2.89 141.04 2.89L141.04 2.89 134.68 2.89 134.68 0.48 139.56 0.48Q140.86 0.48 140.86-0.81L140.86-0.81 140.86-29.79ZM138.6-5.92Q138.6-5.7 138.44-5.53 138.27-5.36 138.05-5.36L138.05-5.36 134.53-5.36 134.53-26.27 138.6-26.27 138.6-5.92ZM129.39-5.77Q129.43-5.99 129.57-6.16 129.72-6.33 129.94-6.33L129.94-6.33 132.72-6.33 132.35-0.18Q132.28 1.33 131.5 2.03 130.72 2.74 129.06 2.66L129.06 2.66 118.95 2.66Q115.51 2.66 115.51-0.78L115.51-0.78 115.51-17.46 129.46-17.46 129.46-9.92Q129.46-6.03 125.58-6.03L125.58-6.03 121.1-6.03 121.1-8.44 124.1-8.44Q125.39-8.44 125.39-9.73L125.39-9.73 125.39-15.06 119.58-15.06 119.58-0.92Q119.58 0.55 121.06 0.55L121.06 0.55 127.72 0.55Q128.91 0.55 129.02-0.74L129.02-0.74 129.39-5.77ZM182.67-11.17Q182.67-10.95 182.5-10.79 182.34-10.62 182.11-10.62L182.11-10.62 175.23-10.62Q176.19-6.96 178.25-3.61 180.3-0.26 182.56 1.11L182.56 1.11 182.56 3.51Q180.08 2.55 177.3-0.22 174.53-3 172.68-6.33L172.68-6.33Q170.94-2.96 168.31-0.2 165.69 2.55 163.24 3.51L163.24 3.51 163.24 1.11Q165.46-0.22 167.33-3.55 169.2-6.88 170.05-10.62L170.05-10.62 163.21-10.62 163.21-13.02 170.46-13.02Q170.57-13.99 170.57-14.84L170.57-14.84 170.57-20.05 164.09-20.05 164.09-22.46 174.34-22.46Q175.31-23.83 176.29-25.94 177.27-28.05 177.53-29.45L177.53-29.45 182.34-29.45Q179.3-24.27 177.71-22.46L177.71-22.46 181.97-22.46 181.97-20.61Q181.97-20.39 181.8-20.22 181.63-20.05 181.41-20.05L181.41-20.05 174.64-20.05 174.64-14.84Q174.64-13.99 174.75-13.02L174.75-13.02 182.67-13.02 182.67-11.17ZM168.42-23.61Q168.16-24.42 166.8-26.05 165.43-27.68 163.61-29.41L163.61-29.41 168.42-29.41Q169.35-28.08 169.92-26.9 170.5-25.71 171.46-23.61L171.46-23.61 168.42-23.61ZM164.39-3.4Q164.06-3.29 163.48-3.09 162.91-2.89 162.36-2.81L162.36-2.81 162.36 3.29Q162.36 3.51 162.19 3.68 162.02 3.85 161.8 3.85L161.8 3.85 158.29 3.85 158.29-2.11 149.7-0.63 149.7-3.96 150.89-4.07 150.89-25.27 149.81-25.27 149.81-27.68 164.06-27.68 164.06-25.83Q164.06-25.6 163.89-25.44 163.72-25.27 163.5-25.27L163.5-25.27 162.36-25.27 162.36-5.36Q162.5-5.4 163.58-5.66L163.58-5.66 164.76-5.99 164.76-3.92Q164.76-3.74 164.65-3.59 164.54-3.44 164.39-3.4L164.39-3.4ZM158.29-25.27L154.96-25.27 154.96-19.76 158.29-19.76 158.29-25.27ZM154.96-17.35L154.96-12.1 158.29-12.1 158.29-17.35 154.96-17.35ZM154.96-4.51L158.29-4.85 158.29-9.69 154.96-9.69 154.96-4.51Z" transform="translate(-2.069999933242798, 29.790000915527344)"></path></g> <!----> <!----> <!----> <!----> <!----> <!----> <!----></g></g> <g data-gra="path-slogan" fill-rule="" class="tp-slogan iconsvg-slogansvg" fill="#333" transform="translate(-36.87500762939453,47.63999938964844)"><rect width="0"></rect> <rect x="257.3500061035156" width="0"></rect> <g transform="translate(0,0)"><g transform="scale(1)"><path d="M3.67 0L0.78 0L0.78-7.15L3.71-7.15Q6.60-6.99 6.72-3.67L6.72-3.67Q6.56-0.08 3.67 0L3.67 0ZM3.55-6.37L1.76-6.37L1.76-0.82L3.63-0.82Q5.66-0.94 5.74-3.59L5.74-3.59Q5.70-6.29 3.55-6.37L3.55-6.37ZM13.66 0L12.95-2.07L10.06-2.07L9.32 0L8.34 0L11.04-7.15L12.13-7.15L14.71 0L13.66 0ZM11.51-6.09L10.38-2.93L12.60-2.93L11.55-6.09L11.51-6.09ZM16.57-7.15L17.55-7.15L17.55-0.86L21.18-0.86L21.18 0L16.57 0L16.57-7.15ZM23.27-7.15L24.25-7.15L24.25 0L23.27 0L23.27-7.15ZM31.62 0L30.91-2.07L28.02-2.07L27.28 0L26.30 0L29-7.15L30.09-7.15L32.67 0L31.62 0ZM29.47-6.09L28.34-2.93L30.56-2.93L29.51-6.09L29.47-6.09ZM35.70-7.15L39.30-1.37L39.30-7.15L40.23-7.15L40.23 0L39.14 0L35.51-5.78L35.47-5.78L35.47 0L34.53 0L34.53-7.15L35.70-7.15ZM46.65-7.15L47.63-7.15L47.63 0L46.65 0L46.65-7.15ZM51.44-7.15L55.03-1.37L55.03-7.15L55.97-7.15L55.97 0L54.88 0L51.24-5.78L51.20-5.78L51.20 0L50.27 0L50.27-7.15L51.44-7.15ZM60.29-6.33L57.87-6.33L57.87-7.15L63.65-7.15L63.65-6.33L61.23-6.33L61.23 0L60.29 0L60.29-6.33ZM66.60-0.86L70.90-0.86L70.90 0L65.63 0L65.63-7.15L70.82-7.15L70.82-6.33L66.60-6.33L66.60-4.10L70.51-4.10L70.51-3.24L66.60-3.24L66.60-0.86ZM73.15-7.15L74.13-7.15L74.13-0.86L77.76-0.86L77.76 0L73.15 0L73.15-7.15ZM79.70-7.15L80.67-7.15L80.67-0.86L84.30-0.86L84.30 0L79.70 0L79.70-7.15ZM86.40-7.15L87.38-7.15L87.38 0L86.40 0L86.40-7.15ZM95.37-3.01L93.18-3.01L93.18-3.83L96.30-3.83L96.30 0L95.68 0L95.45-0.90Q94.63 0.08 93.10 0.12L93.10 0.12Q91.66 0.12 90.88-0.63L90.88-0.63Q89.70-1.72 89.74-3.63L89.74-3.63Q90.02-7.19 93.14-7.34L93.14-7.34Q95.80-7.19 96.19-5L96.19-5L95.25-5Q94.86-6.48 93.10-6.52L93.10-6.52Q90.88-6.37 90.76-3.59L90.76-3.59Q90.76-0.63 93.14-0.63L93.14-0.63Q94-0.63 94.63-1.09L94.63-1.09Q95.41-1.72 95.37-3.01L95.37-3.01ZM99.88-0.86L104.18-0.86L104.18 0L98.91 0L98.91-7.15L104.10-7.15L104.10-6.33L99.88-6.33L99.88-4.10L103.79-4.10L103.79-3.24L99.88-3.24L99.88-0.86ZM107.60-7.15L111.20-1.37L111.20-7.15L112.13-7.15L112.13 0L111.04 0L107.41-5.78L107.37-5.78L107.37 0L106.43 0L106.43-7.15L107.60-7.15ZM116.45-6.33L114.03-6.33L114.03-7.15L119.81-7.15L119.81-6.33L117.39-6.33L117.39 0L116.45 0L116.45-6.33ZM125.60-7.15L126.58-7.15L126.58 0L125.60 0L125.60-7.15ZM130.39-7.15L133.98-1.37L133.98-7.15L134.92-7.15L134.92 0L133.83 0L130.20-5.78L130.16-5.78L130.16 0L129.22 0L129.22-7.15L130.39-7.15ZM138.58-7.15L142.17-1.37L142.17-7.15L143.11-7.15L143.11 0L142.02 0L138.38-5.78L138.34-5.78L138.34 0L137.41 0L137.41-7.15L138.58-7.15ZM151.26-3.55L151.26-3.55Q151.10-6.37 148.76-6.52L148.76-6.52Q146.38-6.41 146.26-3.55L146.26-3.55Q146.38-0.78 148.76-0.66L148.76-0.66Q151.10-0.82 151.26-3.55ZM152.23-3.55L152.23-3.55Q152 0 148.76 0.12L148.76 0.12Q145.48 0 145.24-3.55L145.24-3.55Q145.44-7.27 148.76-7.34L148.76-7.34Q152-7.23 152.23-3.55ZM154.91-7.15L156.95-1.05L159.02-7.15L160.11-7.15L157.49 0L156.44 0L153.82-7.15L154.91-7.15ZM166.73 0L166.03-2.07L163.14-2.07L162.40 0L161.42 0L164.12-7.15L165.21-7.15L167.79 0L166.73 0ZM164.59-6.09L163.45-2.93L165.68-2.93L164.63-6.09L164.59-6.09ZM171.48-6.33L169.06-6.33L169.06-7.15L174.84-7.15L174.84-6.33L172.42-6.33L172.42 0L171.48 0L171.48-6.33ZM176.86-7.15L177.84-7.15L177.84 0L176.86 0L176.86-7.15ZM186.14-3.55L186.14-3.55Q185.98-6.37 183.64-6.52L183.64-6.52Q181.26-6.41 181.14-3.55L181.14-3.55Q181.26-0.78 183.64-0.66L183.64-0.66Q185.98-0.82 186.14-3.55ZM187.12-3.55L187.12-3.55Q186.88 0 183.64 0.12L183.64 0.12Q180.36 0 180.13-3.55L180.13-3.55Q180.32-7.27 183.64-7.34L183.64-7.34Q186.88-7.23 187.12-3.55ZM190.42-7.15L194.02-1.37L194.02-7.15L194.95-7.15L194.95 0L193.86 0L190.23-5.78L190.19-5.78L190.19 0L189.25 0L189.25-7.15L190.42-7.15ZM205.94 0L205.23-2.07L202.34-2.07L201.60 0L200.63 0L203.32-7.15L204.41-7.15L206.99 0L205.94 0ZM203.79-6.09L202.66-2.93L204.88-2.93L203.83-6.09L203.79-6.09ZM208.85-7.15L209.83-7.15L209.83-0.86L213.46-0.86L213.46 0L208.85 0L208.85-7.15ZM215.40-7.15L216.38-7.15L216.38-0.86L220.01-0.86L220.01 0L215.40 0L215.40-7.15ZM222.10-7.15L223.08-7.15L223.08 0L222.10 0L222.10-7.15ZM230.45 0L229.74-2.07L226.85-2.07L226.11 0L225.13 0L227.83-7.15L228.92-7.15L231.50 0L230.45 0ZM228.30-6.09L227.16-2.93L229.39-2.93L228.34-6.09L228.30-6.09ZM234.53-7.15L238.13-1.37L238.13-7.15L239.06-7.15L239.06 0L237.97 0L234.34-5.78L234.30-5.78L234.30 0L233.36 0L233.36-7.15L234.53-7.15ZM247.52-5.04L247.52-5.04L246.59-5.04Q246.23-6.48 244.59-6.52L244.59-6.52Q242.33-6.41 242.25-3.63L242.25-3.63Q242.25-0.66 244.63-0.66L244.63-0.66Q246.27-0.70 246.66-2.66L246.66-2.66L247.60-2.66Q247.17 0.04 244.44 0.12L244.44 0.12Q241.31 0 241.23-3.59L241.23-3.59Q241.39-7.19 244.59-7.34L244.59-7.34Q247.13-7.27 247.52-5.04ZM250.83-0.86L255.13-0.86L255.13 0L249.85 0L249.85-7.15L255.05-7.15L255.05-6.33L250.83-6.33L250.83-4.10L254.73-4.10L254.73-3.24L250.83-3.24L250.83-0.86Z" transform="translate(-0.78125, 7.34375)"></path></g></g></g></g></g><defs v-gra="od"></defs></svg>